<mxfile host="app.diagrams.net" agent="Mozilla/5.0 (Windows NT 10.0; Win64; x64) AppleWebKit/537.36 (KHTML, like Gecko) Chrome/129.0.0.0 Safari/537.36" version="24.7.17">
  <diagram id="prtHgNgQTEPvFCAcTncT" name="Page-1">
    <mxGraphModel dx="2150" dy="1283" grid="1" gridSize="10" guides="1" tooltips="1" connect="1" arrows="1" fold="1" page="0" pageScale="1" pageWidth="827" pageHeight="1169" math="0" shadow="0">
      <root>
        <mxCell id="0" />
        <mxCell id="1" parent="0" />
        <mxCell id="SD3wSJpxxMlzkki4RZ0K-80" value="" style="shape=table;startSize=0;container=1;collapsible=0;childLayout=tableLayout;" vertex="1" parent="1">
          <mxGeometry x="-40" y="-300" width="1140" height="750" as="geometry" />
        </mxCell>
        <mxCell id="SD3wSJpxxMlzkki4RZ0K-81" value="" style="shape=tableRow;horizontal=0;startSize=0;swimlaneHead=0;swimlaneBody=0;strokeColor=inherit;top=0;left=0;bottom=0;right=0;collapsible=0;dropTarget=0;fillColor=none;points=[[0,0.5],[1,0.5]];portConstraint=eastwest;" vertex="1" parent="SD3wSJpxxMlzkki4RZ0K-80">
          <mxGeometry width="1140" height="40" as="geometry" />
        </mxCell>
        <mxCell id="SD3wSJpxxMlzkki4RZ0K-82" value="" style="shape=partialRectangle;html=1;whiteSpace=wrap;connectable=0;strokeColor=inherit;overflow=hidden;fillColor=none;top=0;left=0;bottom=0;right=0;pointerEvents=1;" vertex="1" parent="SD3wSJpxxMlzkki4RZ0K-81">
          <mxGeometry width="60" height="40" as="geometry">
            <mxRectangle width="60" height="40" as="alternateBounds" />
          </mxGeometry>
        </mxCell>
        <mxCell id="SD3wSJpxxMlzkki4RZ0K-83" value="고객등록" style="shape=partialRectangle;html=1;whiteSpace=wrap;connectable=0;strokeColor=inherit;overflow=hidden;fillColor=none;top=0;left=0;bottom=0;right=0;pointerEvents=1;" vertex="1" parent="SD3wSJpxxMlzkki4RZ0K-81">
          <mxGeometry x="60" width="280" height="40" as="geometry">
            <mxRectangle width="280" height="40" as="alternateBounds" />
          </mxGeometry>
        </mxCell>
        <mxCell id="SD3wSJpxxMlzkki4RZ0K-84" value="" style="shape=partialRectangle;html=1;whiteSpace=wrap;connectable=0;strokeColor=inherit;overflow=hidden;fillColor=none;top=0;left=0;bottom=0;right=0;pointerEvents=1;" vertex="1" parent="SD3wSJpxxMlzkki4RZ0K-81">
          <mxGeometry x="340" width="344" height="40" as="geometry">
            <mxRectangle width="344" height="40" as="alternateBounds" />
          </mxGeometry>
        </mxCell>
        <mxCell id="SD3wSJpxxMlzkki4RZ0K-85" value="" style="shape=partialRectangle;html=1;whiteSpace=wrap;connectable=0;strokeColor=inherit;overflow=hidden;fillColor=none;top=0;left=0;bottom=0;right=0;pointerEvents=1;" vertex="1" parent="SD3wSJpxxMlzkki4RZ0K-81">
          <mxGeometry x="684" width="228" height="40" as="geometry">
            <mxRectangle width="228" height="40" as="alternateBounds" />
          </mxGeometry>
        </mxCell>
        <mxCell id="SD3wSJpxxMlzkki4RZ0K-86" value="" style="shape=partialRectangle;html=1;whiteSpace=wrap;connectable=0;strokeColor=inherit;overflow=hidden;fillColor=none;top=0;left=0;bottom=0;right=0;pointerEvents=1;" vertex="1" parent="SD3wSJpxxMlzkki4RZ0K-81">
          <mxGeometry x="912" width="228" height="40" as="geometry">
            <mxRectangle width="228" height="40" as="alternateBounds" />
          </mxGeometry>
        </mxCell>
        <mxCell id="SD3wSJpxxMlzkki4RZ0K-87" value="" style="shape=tableRow;horizontal=0;startSize=0;swimlaneHead=0;swimlaneBody=0;strokeColor=inherit;top=0;left=0;bottom=0;right=0;collapsible=0;dropTarget=0;fillColor=none;points=[[0,0.5],[1,0.5]];portConstraint=eastwest;" vertex="1" parent="SD3wSJpxxMlzkki4RZ0K-80">
          <mxGeometry y="40" width="1140" height="236" as="geometry" />
        </mxCell>
        <mxCell id="SD3wSJpxxMlzkki4RZ0K-88" value="시스템&lt;div&gt;관리자&lt;/div&gt;" style="shape=partialRectangle;html=1;whiteSpace=wrap;connectable=0;strokeColor=inherit;overflow=hidden;fillColor=none;top=0;left=0;bottom=0;right=0;pointerEvents=1;" vertex="1" parent="SD3wSJpxxMlzkki4RZ0K-87">
          <mxGeometry width="60" height="236" as="geometry">
            <mxRectangle width="60" height="236" as="alternateBounds" />
          </mxGeometry>
        </mxCell>
        <mxCell id="SD3wSJpxxMlzkki4RZ0K-89" value="" style="shape=partialRectangle;html=1;whiteSpace=wrap;connectable=0;strokeColor=inherit;overflow=hidden;fillColor=none;top=0;left=0;bottom=0;right=0;pointerEvents=1;" vertex="1" parent="SD3wSJpxxMlzkki4RZ0K-87">
          <mxGeometry x="60" width="280" height="236" as="geometry">
            <mxRectangle width="280" height="236" as="alternateBounds" />
          </mxGeometry>
        </mxCell>
        <mxCell id="SD3wSJpxxMlzkki4RZ0K-90" value="" style="shape=partialRectangle;html=1;whiteSpace=wrap;connectable=0;strokeColor=inherit;overflow=hidden;fillColor=none;top=0;left=0;bottom=0;right=0;pointerEvents=1;" vertex="1" parent="SD3wSJpxxMlzkki4RZ0K-87">
          <mxGeometry x="340" width="344" height="236" as="geometry">
            <mxRectangle width="344" height="236" as="alternateBounds" />
          </mxGeometry>
        </mxCell>
        <mxCell id="SD3wSJpxxMlzkki4RZ0K-91" value="" style="shape=partialRectangle;html=1;whiteSpace=wrap;connectable=0;strokeColor=inherit;overflow=hidden;fillColor=none;top=0;left=0;bottom=0;right=0;pointerEvents=1;" vertex="1" parent="SD3wSJpxxMlzkki4RZ0K-87">
          <mxGeometry x="684" width="228" height="236" as="geometry">
            <mxRectangle width="228" height="236" as="alternateBounds" />
          </mxGeometry>
        </mxCell>
        <mxCell id="SD3wSJpxxMlzkki4RZ0K-92" value="" style="shape=partialRectangle;html=1;whiteSpace=wrap;connectable=0;strokeColor=inherit;overflow=hidden;fillColor=none;top=0;left=0;bottom=0;right=0;pointerEvents=1;" vertex="1" parent="SD3wSJpxxMlzkki4RZ0K-87">
          <mxGeometry x="912" width="228" height="236" as="geometry">
            <mxRectangle width="228" height="236" as="alternateBounds" />
          </mxGeometry>
        </mxCell>
        <mxCell id="SD3wSJpxxMlzkki4RZ0K-93" value="" style="shape=tableRow;horizontal=0;startSize=0;swimlaneHead=0;swimlaneBody=0;strokeColor=inherit;top=0;left=0;bottom=0;right=0;collapsible=0;dropTarget=0;fillColor=none;points=[[0,0.5],[1,0.5]];portConstraint=eastwest;" vertex="1" parent="SD3wSJpxxMlzkki4RZ0K-80">
          <mxGeometry y="276" width="1140" height="237" as="geometry" />
        </mxCell>
        <mxCell id="SD3wSJpxxMlzkki4RZ0K-94" value="테넌트 /&amp;nbsp;&lt;div&gt;권역&lt;/div&gt;&lt;div&gt;관리자&lt;/div&gt;" style="shape=partialRectangle;html=1;whiteSpace=wrap;connectable=0;strokeColor=inherit;overflow=hidden;fillColor=none;top=0;left=0;bottom=0;right=0;pointerEvents=1;" vertex="1" parent="SD3wSJpxxMlzkki4RZ0K-93">
          <mxGeometry width="60" height="237" as="geometry">
            <mxRectangle width="60" height="237" as="alternateBounds" />
          </mxGeometry>
        </mxCell>
        <mxCell id="SD3wSJpxxMlzkki4RZ0K-95" value="" style="shape=partialRectangle;html=1;whiteSpace=wrap;connectable=0;strokeColor=inherit;overflow=hidden;fillColor=none;top=0;left=0;bottom=0;right=0;pointerEvents=1;" vertex="1" parent="SD3wSJpxxMlzkki4RZ0K-93">
          <mxGeometry x="60" width="280" height="237" as="geometry">
            <mxRectangle width="280" height="237" as="alternateBounds" />
          </mxGeometry>
        </mxCell>
        <mxCell id="SD3wSJpxxMlzkki4RZ0K-96" value="" style="shape=partialRectangle;html=1;whiteSpace=wrap;connectable=0;strokeColor=inherit;overflow=hidden;fillColor=none;top=0;left=0;bottom=0;right=0;pointerEvents=1;" vertex="1" parent="SD3wSJpxxMlzkki4RZ0K-93">
          <mxGeometry x="340" width="344" height="237" as="geometry">
            <mxRectangle width="344" height="237" as="alternateBounds" />
          </mxGeometry>
        </mxCell>
        <mxCell id="SD3wSJpxxMlzkki4RZ0K-97" value="" style="shape=partialRectangle;html=1;whiteSpace=wrap;connectable=0;strokeColor=inherit;overflow=hidden;fillColor=none;top=0;left=0;bottom=0;right=0;pointerEvents=1;" vertex="1" parent="SD3wSJpxxMlzkki4RZ0K-93">
          <mxGeometry x="684" width="228" height="237" as="geometry">
            <mxRectangle width="228" height="237" as="alternateBounds" />
          </mxGeometry>
        </mxCell>
        <mxCell id="SD3wSJpxxMlzkki4RZ0K-98" value="" style="shape=partialRectangle;html=1;whiteSpace=wrap;connectable=0;strokeColor=inherit;overflow=hidden;fillColor=none;top=0;left=0;bottom=0;right=0;pointerEvents=1;" vertex="1" parent="SD3wSJpxxMlzkki4RZ0K-93">
          <mxGeometry x="912" width="228" height="237" as="geometry">
            <mxRectangle width="228" height="237" as="alternateBounds" />
          </mxGeometry>
        </mxCell>
        <mxCell id="SD3wSJpxxMlzkki4RZ0K-99" style="shape=tableRow;horizontal=0;startSize=0;swimlaneHead=0;swimlaneBody=0;strokeColor=inherit;top=0;left=0;bottom=0;right=0;collapsible=0;dropTarget=0;fillColor=none;points=[[0,0.5],[1,0.5]];portConstraint=eastwest;" vertex="1" parent="SD3wSJpxxMlzkki4RZ0K-80">
          <mxGeometry y="513" width="1140" height="237" as="geometry" />
        </mxCell>
        <mxCell id="SD3wSJpxxMlzkki4RZ0K-100" value="사업장&lt;div&gt;&amp;nbsp;관리자&lt;/div&gt;" style="shape=partialRectangle;html=1;whiteSpace=wrap;connectable=0;strokeColor=inherit;overflow=hidden;fillColor=none;top=0;left=0;bottom=0;right=0;pointerEvents=1;" vertex="1" parent="SD3wSJpxxMlzkki4RZ0K-99">
          <mxGeometry width="60" height="237" as="geometry">
            <mxRectangle width="60" height="237" as="alternateBounds" />
          </mxGeometry>
        </mxCell>
        <mxCell id="SD3wSJpxxMlzkki4RZ0K-101" style="shape=partialRectangle;html=1;whiteSpace=wrap;connectable=0;strokeColor=inherit;overflow=hidden;fillColor=none;top=0;left=0;bottom=0;right=0;pointerEvents=1;" vertex="1" parent="SD3wSJpxxMlzkki4RZ0K-99">
          <mxGeometry x="60" width="280" height="237" as="geometry">
            <mxRectangle width="280" height="237" as="alternateBounds" />
          </mxGeometry>
        </mxCell>
        <mxCell id="SD3wSJpxxMlzkki4RZ0K-102" style="shape=partialRectangle;html=1;whiteSpace=wrap;connectable=0;strokeColor=inherit;overflow=hidden;fillColor=none;top=0;left=0;bottom=0;right=0;pointerEvents=1;" vertex="1" parent="SD3wSJpxxMlzkki4RZ0K-99">
          <mxGeometry x="340" width="344" height="237" as="geometry">
            <mxRectangle width="344" height="237" as="alternateBounds" />
          </mxGeometry>
        </mxCell>
        <mxCell id="SD3wSJpxxMlzkki4RZ0K-103" style="shape=partialRectangle;html=1;whiteSpace=wrap;connectable=0;strokeColor=inherit;overflow=hidden;fillColor=none;top=0;left=0;bottom=0;right=0;pointerEvents=1;" vertex="1" parent="SD3wSJpxxMlzkki4RZ0K-99">
          <mxGeometry x="684" width="228" height="237" as="geometry">
            <mxRectangle width="228" height="237" as="alternateBounds" />
          </mxGeometry>
        </mxCell>
        <mxCell id="SD3wSJpxxMlzkki4RZ0K-104" style="shape=partialRectangle;html=1;whiteSpace=wrap;connectable=0;strokeColor=inherit;overflow=hidden;fillColor=none;top=0;left=0;bottom=0;right=0;pointerEvents=1;" vertex="1" parent="SD3wSJpxxMlzkki4RZ0K-99">
          <mxGeometry x="912" width="228" height="237" as="geometry">
            <mxRectangle width="228" height="237" as="alternateBounds" />
          </mxGeometry>
        </mxCell>
        <mxCell id="SD3wSJpxxMlzkki4RZ0K-111" value="" style="edgeStyle=orthogonalEdgeStyle;rounded=0;orthogonalLoop=1;jettySize=auto;html=1;" edge="1" parent="1" source="SD3wSJpxxMlzkki4RZ0K-106" target="SD3wSJpxxMlzkki4RZ0K-109">
          <mxGeometry relative="1" as="geometry" />
        </mxCell>
        <mxCell id="SD3wSJpxxMlzkki4RZ0K-106" value="시작" style="strokeWidth=2;html=1;shape=mxgraph.flowchart.start_2;whiteSpace=wrap;" vertex="1" parent="1">
          <mxGeometry x="150" y="-240" width="60" height="60" as="geometry" />
        </mxCell>
        <mxCell id="SD3wSJpxxMlzkki4RZ0K-107" value="고객 기본정보" style="rounded=1;whiteSpace=wrap;html=1;" vertex="1" parent="1">
          <mxGeometry x="-190" y="-130" width="120" height="60" as="geometry" />
        </mxCell>
        <mxCell id="SD3wSJpxxMlzkki4RZ0K-109" value="" style="rounded=0;whiteSpace=wrap;html=1;" vertex="1" parent="1">
          <mxGeometry x="120" y="-150" width="120" height="60" as="geometry" />
        </mxCell>
        <mxCell id="SD3wSJpxxMlzkki4RZ0K-112" value="기업 회원가입" style="rounded=0;whiteSpace=wrap;html=1;" vertex="1" parent="1">
          <mxGeometry x="180" y="40" width="120" height="60" as="geometry" />
        </mxCell>
        <mxCell id="SD3wSJpxxMlzkki4RZ0K-114" style="edgeStyle=orthogonalEdgeStyle;rounded=0;orthogonalLoop=1;jettySize=auto;html=1;exitX=1;exitY=0.5;exitDx=0;exitDy=0;exitPerimeter=0;entryX=0;entryY=0.5;entryDx=0;entryDy=0;" edge="1" parent="1" source="SD3wSJpxxMlzkki4RZ0K-113" target="SD3wSJpxxMlzkki4RZ0K-112">
          <mxGeometry relative="1" as="geometry" />
        </mxCell>
        <mxCell id="SD3wSJpxxMlzkki4RZ0K-113" value="시작" style="strokeWidth=2;html=1;shape=mxgraph.flowchart.start_2;whiteSpace=wrap;" vertex="1" parent="1">
          <mxGeometry x="40" y="40" width="60" height="60" as="geometry" />
        </mxCell>
        <mxCell id="SD3wSJpxxMlzkki4RZ0K-115" value="고객정보" style="strokeWidth=2;html=1;shape=mxgraph.flowchart.database;whiteSpace=wrap;" vertex="1" parent="1">
          <mxGeometry x="160" y="490" width="60" height="60" as="geometry" />
        </mxCell>
        <mxCell id="SD3wSJpxxMlzkki4RZ0K-116" style="edgeStyle=orthogonalEdgeStyle;rounded=0;orthogonalLoop=1;jettySize=auto;html=1;entryX=0.5;entryY=0;entryDx=0;entryDy=0;entryPerimeter=0;" edge="1" parent="1" source="SD3wSJpxxMlzkki4RZ0K-112" target="SD3wSJpxxMlzkki4RZ0K-115">
          <mxGeometry relative="1" as="geometry" />
        </mxCell>
      </root>
    </mxGraphModel>
  </diagram>
</mxfile>
